<svg width="120" height="33" viewBox="0 0 120 33" fill="none" xmlns="http://www.w3.org/2000/svg">
<path d="M30.6954 11.6547H28.2973C26.8052 6.92384 22.3288 3.46875 17.1063 3.46875C11.8305 3.46875 7.40734 6.92384 5.9152 11.6547H3.46383C1.59865 11.6547 0.0532227 13.1962 0.0532227 15.0566V18.2459C0.0532227 20.1063 1.59865 21.6478 3.46383 21.6478H3.57041C5.59546 25.9003 9.48568 28.9301 14.0687 29.8869C14.0687 29.94 14.0687 29.9932 14.0687 30.0464C14.0687 31.1095 14.9746 32.0131 16.0404 32.0131H18.1721C19.2379 32.0131 20.1438 31.1095 20.1438 30.0464C20.1438 28.9833 19.2379 28.0796 18.1721 28.0796H16.0404C15.5608 28.0796 15.1345 28.2391 14.8148 28.5049C10.7114 27.7607 7.24747 25.2624 5.27571 21.6478H7.24747C9.3791 24.8371 12.9496 26.9634 17.053 26.9634C18.0655 26.9634 19.078 26.857 20.0905 26.5913V26.9634H28.8302V21.6478H30.6954C32.5606 21.6478 34.106 20.1063 34.106 18.2459V15.0566C34.106 13.1962 32.6139 11.6547 30.6954 11.6547ZM16.0404 29.568H18.1721C18.4385 29.568 18.6517 29.7806 18.6517 30.0464C18.6517 30.3121 18.4385 30.5248 18.1721 30.5248H16.0404C15.774 30.5248 15.5608 30.3121 15.5608 30.0464C15.5608 29.7806 15.774 29.568 16.0404 29.568ZM3.46383 20.1063C2.45131 20.1063 1.59865 19.2558 1.59865 18.2459V15.0566C1.59865 14.0466 2.45131 13.1962 3.46383 13.1962H5.32901H5.48888C5.3823 13.834 5.32901 14.525 5.32901 15.1629C5.32901 16.917 5.70204 18.5648 6.39482 20.1063H3.46383ZM27.3381 25.4219H21.636V24.4119L20.6234 24.784C19.5043 25.2092 18.3319 25.4219 17.1063 25.4219C11.4574 25.4219 6.87444 20.8505 6.87444 15.2161C6.87444 9.5816 11.4574 5.01025 17.1063 5.01025C22.7551 5.01025 27.3381 9.5816 27.3381 15.2161V25.4219ZM32.6139 18.2459C32.6139 19.2558 31.7612 20.1063 30.7487 20.1063H28.8302V15.1629C28.8302 14.4719 28.7769 13.7809 28.6703 13.143H30.7487C31.7612 13.143 32.6139 13.9935 32.6139 15.0034V18.2459Z" fill="#186ADE"/>
<path d="M17.1069 9.5C13.9627 9.5 11.4048 12.0515 11.4048 15.1876C11.4048 18.3238 13.9627 20.8752 17.1069 20.8752C20.251 20.8752 22.809 18.3238 22.809 15.1876C22.7557 12.0515 20.1978 9.5 17.1069 9.5ZM17.1069 19.3337C14.8154 19.3337 12.9502 17.4733 12.9502 15.1876C12.9502 12.9019 14.8154 11.0415 17.1069 11.0415C19.3984 11.0415 21.2636 12.9019 21.2636 15.1876C21.2636 17.4733 19.3984 19.3337 17.1069 19.3337Z" fill="#186ADE"/>
<path d="M17.1072 1.48835C22.9692 1.48835 28.0851 5.26237 29.8437 10.6842H31.4424C29.5772 4.41188 23.7685 0 17.1072 0C10.3925 0 4.58386 4.41188 2.77197 10.6842H4.37069C6.12929 5.26237 11.1919 1.48835 17.1072 1.48835Z" fill="#186ADE"/>
<path d="M50.4744 6.46556H52.5532V14.6675H50.4744V13.792C50.0586 14.1606 49.6891 14.4371 49.2733 14.6214C48.8576 14.8057 48.4418 14.8518 47.9798 14.8518C46.9173 14.8518 45.9934 14.4371 45.2081 13.6077C44.4228 12.7783 44.0532 11.7645 44.0532 10.5665C44.0532 9.3224 44.4228 8.26261 45.1619 7.47928C45.901 6.64987 46.825 6.28125 47.8875 6.28125C48.3956 6.28125 48.8576 6.37341 49.2733 6.55772C49.6891 6.74203 50.1048 7.0185 50.4744 7.38712V6.46556ZM48.3032 8.12437C47.6565 8.12437 47.1483 8.35476 46.7326 8.81554C46.3168 9.27632 46.0858 9.82926 46.0858 10.5665C46.0858 11.2577 46.3168 11.8567 46.7326 12.3175C47.1483 12.7783 47.7027 13.0086 48.3032 13.0086C48.95 13.0086 49.5043 12.7783 49.9201 12.3175C50.3358 11.8567 50.5668 11.2577 50.5668 10.5665C50.5668 9.87534 50.3358 9.27632 49.9201 8.81554C49.5043 8.35476 48.95 8.12437 48.3032 8.12437Z" fill="black"/>
<path d="M54.4009 3.28125H56.4797V14.6165H54.4009V3.28125Z" fill="black"/>
<path d="M62.2088 6.21875C62.9941 6.21875 63.7332 6.40306 64.38 6.81776C65.0729 7.18639 65.5811 7.73933 65.9968 8.38442C66.3664 9.02951 66.5512 9.76676 66.5512 10.5501C66.5512 11.3334 66.3664 12.0246 65.9506 12.7158C65.5811 13.4069 65.0267 13.9138 64.38 14.2824C63.7332 14.651 62.9941 14.8353 62.1626 14.8353C61.0077 14.8353 59.9914 14.4206 59.1599 13.5912C58.3284 12.7618 57.9126 11.7481 57.9126 10.5501C57.9126 9.2599 58.3746 8.20011 59.3447 7.3707C60.1762 6.58737 61.1001 6.21875 62.2088 6.21875ZM62.2088 8.15403C61.562 8.15403 61.0539 8.38442 60.5919 8.79912C60.13 9.21382 59.9452 9.81284 59.9452 10.504C59.9452 11.1952 60.1762 11.7942 60.5919 12.255C61.0077 12.7158 61.562 12.9001 62.2088 12.9001C62.8555 12.9001 63.4099 12.6697 63.8256 12.2089C64.2414 11.7481 64.4724 11.1952 64.4724 10.504C64.4724 9.81284 64.2414 9.21382 63.8256 8.79912C63.4099 8.38442 62.9017 8.15403 62.2088 8.15403Z" fill="black"/>
<path d="M68.2603 3.28125H70.3391V9.82434L73.388 6.46064H75.9749L72.4179 10.3773L76.3907 14.6625H73.8499L70.3853 10.8841V14.6625H68.3065V3.28125H68.2603Z" fill="black"/>
<path d="M81.0564 6.21875C81.8418 6.21875 82.5809 6.40306 83.2276 6.81776C83.9206 7.18639 84.4287 7.73933 84.8445 8.38442C85.214 9.02951 85.3988 9.76676 85.3988 10.5501C85.3988 11.3334 85.214 12.0246 84.7983 12.7158C84.4287 13.4069 83.8744 13.9138 83.2276 14.2824C82.5809 14.651 81.8418 14.8353 81.0102 14.8353C79.8554 14.8353 78.8391 14.4206 78.0075 13.5912C77.176 12.7618 76.7603 11.7481 76.7603 10.5501C76.7603 9.2599 77.2222 8.20011 78.1923 7.3707C79.0238 6.58737 79.9939 6.21875 81.0564 6.21875ZM81.1026 8.15403C80.4559 8.15403 79.9478 8.38442 79.4858 8.79912C79.07 9.2599 78.8391 9.81284 78.8391 10.504C78.8391 11.1952 79.07 11.7942 79.4858 12.255C79.9016 12.7158 80.4559 12.9001 81.1026 12.9001C81.7494 12.9001 82.3037 12.6697 82.7195 12.2089C83.1352 11.7481 83.3662 11.1952 83.3662 10.504C83.3662 9.81284 83.1352 9.21382 82.7195 8.79912C82.3037 8.38442 81.7494 8.15403 81.1026 8.15403Z" fill="black"/>
<path d="M87.0597 6.44914H89.1385V7.3707C89.508 7.00208 89.8776 6.67953 90.2934 6.49522C90.7091 6.31091 91.1711 6.21875 91.6792 6.21875C92.1874 6.21875 92.6493 6.35698 93.0651 6.58737C93.4809 6.81776 93.8042 7.18639 94.0814 7.69325C94.4048 7.23247 94.8205 6.86384 95.2825 6.58737C95.7444 6.35698 96.2988 6.21875 96.8531 6.21875C97.4537 6.21875 97.9618 6.35698 98.3776 6.63345C98.8395 6.90992 99.1167 7.27855 99.3477 7.69325C99.5325 8.10795 99.6249 8.8452 99.6249 9.81284V14.605H97.5923V10.4579C97.5923 9.53637 97.4537 8.89128 97.2227 8.56873C96.9917 8.24619 96.6221 8.06187 96.1602 8.06187C95.7906 8.06187 95.5135 8.15403 95.1901 8.38442C94.9129 8.56873 94.6819 8.8452 94.5895 9.21382C94.451 9.58245 94.4048 10.1354 94.4048 10.9187V14.605H92.326V10.6422C92.326 9.905 92.2798 9.39814 92.1412 9.02951C92.0488 8.70697 91.864 8.47658 91.633 8.29226C91.4021 8.15403 91.1711 8.06187 90.8477 8.06187C90.5243 8.06187 90.201 8.15403 89.9238 8.38442C89.6466 8.56873 89.4156 8.89128 89.2771 9.2599C89.1385 9.62853 89.0461 10.1815 89.0461 11.0109V14.651H86.9673V6.44914H87.0597Z" fill="black"/>
<path d="M107.713 6.46556H109.791V14.6675H107.713V13.792C107.297 14.1606 106.927 14.4371 106.512 14.6214C106.096 14.8057 105.68 14.8518 105.218 14.8518C104.156 14.8518 103.232 14.4371 102.446 13.6077C101.661 12.7783 101.292 11.7645 101.292 10.5665C101.292 9.3224 101.661 8.26261 102.4 7.47928C103.139 6.69595 104.063 6.28125 105.126 6.28125C105.634 6.28125 106.096 6.37341 106.512 6.55772C106.927 6.74203 107.343 7.0185 107.713 7.38712V6.46556ZM105.541 8.12437C104.895 8.12437 104.387 8.35476 103.971 8.81554C103.555 9.27632 103.324 9.82926 103.324 10.5665C103.324 11.2577 103.555 11.8567 103.971 12.3175C104.387 12.7783 104.941 13.0086 105.541 13.0086C106.188 13.0086 106.743 12.7783 107.158 12.3175C107.574 11.8567 107.805 11.2577 107.805 10.5665C107.805 9.87534 107.574 9.27632 107.158 8.81554C106.696 8.35476 106.188 8.12437 105.541 8.12437Z" fill="black"/>
<path d="M111.87 3.28125H113.948V9.82434L116.997 6.46064H119.584L116.027 10.3773L120 14.6625H117.459L113.995 10.8841V14.6625H111.916V3.28125H111.87Z" fill="black"/>
<path d="M44.1059 21H44.7376V23.8355C45.0008 23.5204 45.264 23.2579 45.5798 23.0478C45.8957 22.8903 46.2116 22.7853 46.5801 22.7853C46.9485 22.7853 47.2644 22.8903 47.5803 23.0478C47.8435 23.2579 48.1067 23.4679 48.212 23.7829C48.3172 24.098 48.4225 24.6231 48.4225 25.2532V27.8786H47.7908V25.5157C47.7908 24.9381 47.7908 24.5706 47.7382 24.3605C47.6329 24.0455 47.5276 23.7829 47.317 23.6254C47.1065 23.4679 46.8433 23.3629 46.4748 23.3629C46.1063 23.3629 45.7378 23.4679 45.4219 23.7304C45.1061 23.993 44.8955 24.308 44.7902 24.6756C44.7376 24.9381 44.6849 25.3582 44.6849 26.0408V27.8786H44.0532V21H44.1059Z" fill="#757575"/>
<path d="M54.0029 26.2102L54.5293 26.4727C54.3714 26.8403 54.1608 27.1028 53.8976 27.3129C53.6871 27.5229 53.4238 27.6804 53.108 27.7854C52.7921 27.8905 52.4763 27.943 52.1078 27.943C51.3182 27.943 50.6338 27.6804 50.2127 27.1553C49.7389 26.6302 49.5283 26.0002 49.5283 25.37C49.5283 24.7399 49.7389 24.1624 50.1074 23.6898C50.5812 23.0597 51.2655 22.7446 52.1078 22.7446C52.9501 22.7446 53.6344 23.0597 54.1608 23.6898C54.5293 24.1624 54.6873 24.6874 54.6873 25.37H50.2127C50.2127 25.9476 50.4232 26.4202 50.7917 26.7878C51.1602 27.1553 51.5814 27.3654 52.1078 27.3654C52.371 27.3654 52.6342 27.3129 52.8448 27.2078C53.108 27.1028 53.2659 26.9978 53.4765 26.8403C53.6344 26.7878 53.845 26.5777 54.0029 26.2102ZM54.0029 24.8975C53.8976 24.5824 53.7923 24.2674 53.6344 24.0573C53.4765 23.8473 53.2659 23.6898 53.0027 23.5848C52.7395 23.4797 52.4763 23.3747 52.1604 23.3747C51.6867 23.3747 51.2655 23.5323 50.897 23.8473C50.6338 24.0573 50.4232 24.4249 50.318 24.8975H54.0029Z" fill="#757575"/>
<path d="M55.8452 21H56.4769V27.8786H55.8452V21Z" fill="#757575"/>
<path d="M57.7944 22.9022H58.4261V23.7948C58.6894 23.4272 58.9526 23.1647 59.3211 23.0072C59.6369 22.8496 60.0054 22.7446 60.4265 22.7446C61.1109 22.7446 61.7426 23.0072 62.269 23.5323C62.7954 24.0573 63.006 24.6349 63.006 25.37C63.006 26.1052 62.7428 26.7353 62.269 27.2078C61.7952 27.7329 61.1635 27.9955 60.4792 27.9955C60.0581 27.9955 59.7422 27.8905 59.3737 27.7329C59.0578 27.5754 58.742 27.3129 58.4788 26.9978V29.6757H57.8471V22.9022H57.7944ZM60.3739 23.3747C59.7948 23.3747 59.3737 23.5848 58.9526 23.9523C58.5841 24.3199 58.3735 24.845 58.3735 25.37C58.3735 25.7376 58.4788 26.1052 58.6367 26.3677C58.7946 26.6828 59.0578 26.8928 59.3737 27.1028C59.6896 27.2604 60.0054 27.3654 60.3739 27.3654C60.7424 27.3654 61.0583 27.2604 61.3215 27.1028C61.6373 26.9453 61.8479 26.6828 62.0585 26.3677C62.2164 26.0527 62.3217 25.7376 62.3217 25.37C62.3217 25.0025 62.2164 24.6874 62.0585 24.3724C61.9005 24.0573 61.6373 23.7948 61.3215 23.6373C61.0583 23.4797 60.7424 23.3747 60.3739 23.3747Z" fill="#757575"/>
<path d="M71.6396 23.9335L71.1132 24.2486C70.692 23.671 70.0603 23.356 69.3233 23.356C68.6916 23.356 68.2178 23.566 67.7967 23.9335C67.3756 24.3011 67.2176 24.7737 67.2176 25.3513C67.2176 25.7188 67.3229 26.0339 67.4809 26.3489C67.6914 26.664 67.902 26.9265 68.2178 27.084C68.5337 27.2416 68.9022 27.3466 69.3233 27.3466C70.0603 27.3466 70.6394 27.0315 71.1132 26.4539L71.6396 26.769C71.3764 27.1366 71.0605 27.3991 70.692 27.6091C70.2709 27.8192 69.8498 27.9242 69.3233 27.9242C68.5337 27.9242 67.902 27.6616 67.3756 27.1891C66.8491 26.664 66.5859 26.0864 66.5859 25.3513C66.5859 24.8787 66.6912 24.4061 66.9544 23.986C67.2176 23.566 67.5335 23.2509 67.9546 23.0409C68.3758 22.8309 68.8496 22.6733 69.376 22.6733C69.6918 22.6733 70.0077 22.7258 70.3235 22.8309C70.6394 22.9359 70.9026 23.0409 71.1132 23.1984C71.3237 23.3559 71.4817 23.671 71.6396 23.9335Z" fill="#757575"/>
<path d="M77.061 26.2102L77.5874 26.4727C77.4295 26.8403 77.2189 27.1028 76.9557 27.3129C76.7452 27.5229 76.482 27.6804 76.1661 27.7854C75.8502 27.8905 75.5344 27.943 75.1659 27.943C74.3763 27.943 73.6919 27.6804 73.2708 27.1553C72.797 26.6302 72.5864 26.0002 72.5864 25.37C72.5864 24.7399 72.797 24.1624 73.1655 23.6898C73.6393 23.0597 74.3236 22.7446 75.1659 22.7446C76.0082 22.7446 76.6925 23.0597 77.2189 23.6898C77.5874 24.1624 77.7454 24.6874 77.7454 25.37H73.2708C73.2708 25.9476 73.4813 26.4202 73.8498 26.7878C74.2183 27.1553 74.6395 27.3654 75.1659 27.3654C75.4291 27.3654 75.6923 27.3129 75.9029 27.2078C76.1661 27.1028 76.324 26.9978 76.5346 26.8403C76.6925 26.7878 76.8504 26.5777 77.061 26.2102ZM77.061 24.8975C76.9557 24.5824 76.8505 24.2674 76.6925 24.0573C76.5346 23.8473 76.324 23.6898 76.0608 23.5848C75.7976 23.4797 75.5344 23.3747 75.2185 23.3747C74.7448 23.3747 74.3236 23.5323 73.9551 23.8473C73.6919 24.0573 73.4813 24.4249 73.3761 24.8975H77.061Z" fill="#757575"/>
<path d="M78.956 22.9022H79.5877V23.7948C79.8509 23.4797 80.1141 23.2172 80.43 23.0072C80.7458 22.8496 81.0617 22.7446 81.4302 22.7446C81.7986 22.7446 82.1145 22.8496 82.4304 23.0072C82.6936 23.2172 82.9568 23.4272 83.0621 23.7948C83.22 24.1098 83.2726 24.6349 83.2726 25.265V27.8905H82.6409V25.5276C82.6409 24.95 82.6409 24.5824 82.5883 24.3724C82.5356 24.0573 82.3777 23.7948 82.1671 23.6373C81.9566 23.4797 81.6934 23.3747 81.3249 23.3747C80.9564 23.3747 80.5879 23.4797 80.272 23.7423C79.9562 24.0048 79.7456 24.3199 79.6403 24.6874C79.5877 24.95 79.535 25.37 79.535 26.0527V27.8905H78.9033V22.9022H78.956Z" fill="#757575"/>
<path d="M85.2201 21.0347H85.8518V22.8725H86.852V23.4501H85.8518V27.8608H85.2201V23.4501H84.3252V22.8725H85.2201V21.0347Z" fill="#757575"/>
<path d="M92.0625 26.2102L92.5889 26.4727C92.431 26.8403 92.2204 27.1028 91.9572 27.3129C91.7466 27.5229 91.4834 27.6804 91.1676 27.7854C90.8517 27.8905 90.5359 27.943 90.1674 27.943C89.3777 27.943 88.6934 27.6804 88.2722 27.1553C87.7985 26.6302 87.5879 26.0002 87.5879 25.37C87.5879 24.7399 87.7985 24.1624 88.167 23.6898C88.6407 23.0597 89.3251 22.7446 90.1674 22.7446C91.0096 22.7446 91.694 23.0597 92.2204 23.6898C92.5889 24.1624 92.7468 24.6874 92.7468 25.37H88.2722C88.2722 25.9476 88.4828 26.4202 88.8513 26.7878C89.2198 27.1553 89.6409 27.3654 90.1674 27.3654C90.4306 27.3654 90.6938 27.3129 90.9044 27.2078C91.1676 27.1028 91.3255 26.9978 91.5361 26.8403C91.694 26.7878 91.8519 26.5777 92.0625 26.2102ZM92.0625 24.8975C91.9572 24.5824 91.8519 24.2674 91.694 24.0573C91.5361 23.8473 91.3255 23.6898 91.0623 23.5848C90.7991 23.4797 90.5359 23.3747 90.22 23.3747C89.7462 23.3747 89.3251 23.5323 88.9566 23.8473C88.6934 24.0573 88.4828 24.4249 88.3775 24.8975H92.0625Z" fill="#757575"/>
<path d="M93.6948 22.8863H94.3265V23.6214C94.5371 23.3588 94.7477 23.0963 94.9582 22.9913C95.1688 22.8338 95.3794 22.7812 95.6426 22.7812C95.8005 22.7812 96.0111 22.8338 96.2217 22.9388L95.9058 23.4639C95.7479 23.4114 95.6426 23.3588 95.5899 23.3588C95.3794 23.3588 95.1688 23.4639 94.9582 23.6214C94.7477 23.7789 94.5897 24.094 94.4845 24.4615C94.3792 24.7241 94.3792 25.3017 94.3792 26.1943V27.8746H93.7475V22.8863H93.6948Z" fill="#757575"/>
</svg>
